<svg xmlns="http://www.w3.org/2000/svg"  viewBox="0 0 100 100" width="100px" height="100px"><path fill="#c7ede6" d="M87.215,56.71C88.35,54.555,89,52.105,89,49.5c0-6.621-4.159-12.257-10.001-14.478	C78.999,35.015,79,35.008,79,35c0-11.598-9.402-21-21-21c-9.784,0-17.981,6.701-20.313,15.757C36.211,29.272,34.638,29,33,29	c-7.692,0-14.023,5.793-14.89,13.252C12.906,43.353,9,47.969,9,53.5C9,59.851,14.149,65,20.5,65c0.177,0,0.352-0.012,0.526-0.022	C21.022,65.153,21,65.324,21,65.5C21,76.822,30.178,86,41.5,86c6.437,0,12.175-2.972,15.934-7.614C59.612,80.611,62.64,82,66,82	c4.65,0,8.674-2.65,10.666-6.518C77.718,75.817,78.837,76,80,76c6.075,0,11-4.925,11-11C91,61.689,89.53,58.727,87.215,56.71z"/><path fill="#fdfcef" d="M37.875,35.5c0,0,3.64,0,6.125,0s4.5-2.015,4.5-4.5c0-2.333-1.782-4.229-4.055-4.455	C44.467,26.364,44.5,26.187,44.5,26c0-2.485-2.015-4.5-4.5-4.5c-1.438,0-2.703,0.686-3.527,1.736C36.333,20.6,34.171,18.5,31.5,18.5	c-2.761,0-5,2.239-5,5c0,0.446,0.077,0.87,0.187,1.282C26.045,24.005,25.086,23.5,24,23.5c-1.781,0-3.234,1.335-3.455,3.055	C20.364,26.533,20.187,26.5,20,26.5c-2.485,0-4.5,2.015-4.5,4.5s2.015,4.5,4.5,4.5s9.5,0,9.5,0h5.375V36h3V35.5z"/><path fill="#472b29" d="M31.5,18c-3.033,0-5.5,2.467-5.5,5.5c0,0.016,0,0.031,0,0.047C25.398,23.192,24.71,23,24,23	c-1.831,0-3.411,1.261-3.858,3.005C20.095,26.002,20.048,26,20,26c-2.757,0-5,2.243-5,5s2.243,5,5,5h14.875	c0.276,0,0.5-0.224,0.5-0.5s-0.224-0.5-0.5-0.5H20c-2.206,0-4-1.794-4-4s1.794-4,4-4c0.117,0,0.23,0.017,0.343,0.032l0.141,0.019	c0.021,0.003,0.041,0.004,0.062,0.004c0.246,0,0.462-0.185,0.495-0.437C21.232,25.125,22.504,24,24,24	c0.885,0,1.723,0.401,2.301,1.1c0.098,0.118,0.241,0.182,0.386,0.182c0.078,0,0.156-0.018,0.228-0.056	c0.209-0.107,0.314-0.346,0.254-0.573C27.054,24.218,27,23.852,27,23.5c0-2.481,2.019-4.5,4.5-4.5c2.381,0,4.347,1.872,4.474,4.263	c0.011,0.208,0.15,0.387,0.349,0.45c0.05,0.016,0.101,0.024,0.152,0.024c0.15,0,0.296-0.069,0.392-0.192	C37.638,22.563,38.779,22,40,22c2.206,0,4,1.794,4,4c0,0.117-0.017,0.23-0.032,0.343l-0.019,0.141	c-0.016,0.134,0.022,0.268,0.106,0.373s0.207,0.172,0.34,0.185C46.451,27.247,48,28.949,48,31c0,2.206-1.794,4-4,4h-6.125	c-0.276,0-0.5,0.224-0.5,0.5s0.224,0.5,0.5,0.5H44c2.757,0,5-2.243,5-5c0-2.397-1.689-4.413-4.003-4.877	C44.999,26.082,45,26.041,45,26c0-2.757-2.243-5-5-5c-1.176,0-2.293,0.416-3.183,1.164C36.219,19.76,34.055,18,31.5,18L31.5,18z"/><path fill="#472b29" d="M30,25c-1.403,0-2.609,0.999-2.913,2.341C26.72,27.119,26.301,27,25.875,27	c-1.202,0-2.198,0.897-2.353,2.068C23.319,29.022,23.126,29,22.937,29c-1.529,0-2.811,1.2-2.918,2.732	C20.01,31.87,20.114,31.99,20.251,32c0.006,0,0.012,0,0.018,0c0.13,0,0.24-0.101,0.249-0.232c0.089-1.271,1.151-2.268,2.419-2.268	c0.229,0,0.47,0.042,0.738,0.127c0.022,0.007,0.045,0.01,0.067,0.01c0.055,0,0.11-0.02,0.156-0.054	C23.962,29.537,24,29.455,24,29.375c0-1.034,0.841-1.875,1.875-1.875c0.447,0,0.885,0.168,1.231,0.473	c0.047,0.041,0.106,0.063,0.165,0.063c0.032,0,0.063-0.006,0.093-0.019c0.088-0.035,0.148-0.117,0.155-0.212	C27.623,26.512,28.712,25.5,30,25.5c0.208,0,0.425,0.034,0.682,0.107c0.023,0.007,0.047,0.01,0.07,0.01	c0.109,0,0.207-0.073,0.239-0.182c0.038-0.133-0.039-0.271-0.172-0.309C30.517,25.04,30.256,25,30,25L30,25z"/><path fill="#5a5c70" d="M29,67.291V34.709C29,31.556,31.556,29,34.709,29h32.581C70.444,29,73,31.556,73,34.709v32.581 C73,70.444,70.444,73,67.291,73H34.709C31.556,73,29,70.444,29,67.291z"/><path fill="#f27e97" d="M34.847,66.305c0,0,1.245-5.214,4.125-7.316c3.777-2.756,11.611-2.656,17.57-6.073 c3.745-2.147,7.621-5.043,9.359-9.648c2.224-5.893,0.934-9.573,0.934-9.573s-0.543,3.513-1.712,5.448 c-1.631,2.699-7.178,5.288-11.789,6.815c-2.924,0.968-5.389,1.337-7.208,2.167c-4.436,2.024-8.236,5.65-9.917,9.667 C34.5,61.875,34.847,66.305,34.847,66.305z"/><path fill="#666aad" d="M34.89,66.226c0.388-3.395,1.27-7.407,2.84-9.772c1.554-2.34,3.419-4.18,6.145-5.579	c3.486-1.789,8.457-2.732,13.437-4.188c4.447-1.299,7.195-3.939,8.563-7.188c0.746-1.773,0.993-3.799,0.877-6.013	c-0.463,2.021-1.1,3.935-1.98,5.697c-1.803,1.752-4.001,3.301-6.747,4.566l-13.016,4.361c-3.346,1.782-6.199,4.399-8.041,7.087	c-1.391,2.636-2.234,5.25-2.385,7.837C34.386,64.812,34.512,65.82,34.89,66.226z"/><path fill="#e23855" d="M36.227,63.052c0.681-1.987,1.812-4.883,4.537-7.04c2.545-2.015,6.608-3.271,8.741-3.519	c10.727-1.249,14.814-5.051,16.006-7.038c-1.83,2.804-4.021,5.303-7.01,7.127c-3.263,1.927-6.658,3.318-10.25,3.917	c-3.221,0.373-6.224,1.197-8.917,2.667L36.227,63.052z"/><path fill="#472b29" d="M36.227,63.302c-0.027,0-0.054-0.004-0.081-0.014c-0.131-0.044-0.2-0.187-0.155-0.317 c0.814-2.375,2-5.082,4.618-7.154c2.594-2.053,6.747-3.324,8.867-3.572c0.68-0.079,1.333-0.168,1.959-0.268 c0.133-0.021,0.264,0.071,0.286,0.208c0.021,0.136-0.072,0.265-0.208,0.286c-0.634,0.1-1.293,0.19-1.98,0.271 c-2.062,0.24-6.098,1.475-8.614,3.466c-2.517,1.993-3.665,4.619-4.456,6.925C36.427,63.237,36.331,63.302,36.227,63.302z M53.44,52.12c-0.116,0-0.22-0.082-0.245-0.2c-0.027-0.135,0.06-0.268,0.195-0.295c8.597-1.762,11.286-5.266,11.905-6.297 c0.071-0.119,0.227-0.157,0.343-0.086c0.119,0.071,0.157,0.225,0.086,0.343c-0.646,1.076-3.437,4.727-12.233,6.531 C53.474,52.119,53.458,52.12,53.44,52.12z"/><path fill="#ff991f" d="M36.513,63.231c0.872-2.58,2.218-4.863,4.948-6.711c2.275-1.337,5.164-1.636,7.45-1.678	c2.292-0.042,4.822,0.001,6.512-0.882c-1.635,1.048-3.738,1.817-6.34,2.289l-8.5,2.167C39.01,59.496,37.715,61.252,36.513,63.231z"/><path fill="#472b29" d="M36.513,63.356c-0.013,0-0.027-0.002-0.04-0.006c-0.065-0.022-0.101-0.093-0.079-0.159 c0.608-1.799,1.362-3.204,2.372-4.419c0.045-0.054,0.125-0.06,0.176-0.017c0.053,0.044,0.061,0.123,0.017,0.176 c-0.989,1.192-1.729,2.571-2.327,4.34C36.614,63.324,36.565,63.356,36.513,63.356z M39.533,58.236 c-0.032,0-0.063-0.012-0.088-0.036c-0.049-0.048-0.049-0.127-0.001-0.177c0.572-0.579,1.228-1.119,1.947-1.606 c1.808-1.063,4.192-1.616,7.295-1.694c0.069,0.002,0.126,0.053,0.128,0.122c0.002,0.069-0.053,0.126-0.122,0.128 c-3.059,0.078-5.403,0.619-7.167,1.656c-0.7,0.473-1.342,1.003-1.903,1.57C39.598,58.224,39.565,58.236,39.533,58.236z"/><path fill="#39c1d7" d="M45.125,50.313C48.938,47.875,54.813,47,60,42.563c-2.685,1.713-5.402,2.918-8.167,3.354	c-4.088,1.187-8.015,2.456-10.583,4.417c-2.221,2.149-4.206,4.571-5.75,7.5c-0.839,2.466-1.224,5.022-1.167,7.667l0.417,0.333	c0.445-2.772,0.902-5.5,1.75-6.75c1.217-2.49,2.54-4.512,4-5.917C41.973,51.907,43.514,50.951,45.125,50.313z"/><path fill="#472b29" d="M34.891,66.476c-0.01,0-0.019,0-0.029-0.001c-0.137-0.016-0.236-0.14-0.22-0.277 c0.23-2.013,0.971-7.006,2.88-9.882c1.691-2.547,3.674-4.347,6.239-5.664c2.493-1.279,5.735-2.129,9.167-3.03 c1.408-0.37,2.864-0.751,4.314-1.175c2.293-0.67,4.216-1.729,5.715-3.149c0.101-0.095,0.259-0.09,0.354,0.01s0.09,0.258-0.01,0.354 c-1.557,1.475-3.548,2.573-5.918,3.266c-1.457,0.426-2.917,0.809-4.328,1.179c-3.405,0.893-6.621,1.736-9.065,2.991 c-2.521,1.293-4.387,2.988-6.051,5.495c-1.849,2.786-2.574,7.685-2.8,9.662C35.124,66.382,35.016,66.476,34.891,66.476z M63.825,43.012c-0.059,0-0.119-0.021-0.166-0.063c-0.104-0.092-0.112-0.25-0.021-0.353c0.833-0.938,1.509-2.012,2.006-3.193 c0.596-1.414,0.885-3.018,0.885-4.902c0-0.329-0.009-0.663-0.027-1c-0.007-0.138,0.099-0.255,0.236-0.263 c0.148-0.012,0.255,0.099,0.263,0.236c0.019,0.347,0.028,0.689,0.028,1.027c0,1.952-0.302,3.619-0.924,5.096 c-0.519,1.232-1.224,2.353-2.094,3.331C63.962,42.984,63.894,43.012,63.825,43.012z"/><path fill="#472b29" d="M45.381,50.182c-0.043,0-0.085-0.022-0.108-0.063c-0.034-0.06-0.014-0.136,0.046-0.171 c1.073-0.621,2.481-1.166,4.112-1.798c1.558-0.604,3.323-1.287,5.077-2.159c0.063-0.029,0.137-0.006,0.167,0.056 c0.031,0.062,0.006,0.137-0.056,0.167c-1.764,0.877-3.535,1.563-5.098,2.168c-1.621,0.627-3.021,1.17-4.077,1.781 C45.424,50.176,45.402,50.182,45.381,50.182z M55.452,45.77c-0.044,0-0.087-0.024-0.11-0.066c-0.033-0.061-0.01-0.137,0.051-0.169 c1.582-0.851,2.928-1.758,4.116-2.774c0.052-0.043,0.132-0.039,0.176,0.014c0.044,0.052,0.039,0.131-0.014,0.176 c-1.201,1.027-2.562,1.945-4.16,2.804C55.492,45.765,55.472,45.77,55.452,45.77z"/><path fill="#472b29" d="M66.835,33.695c0,0,1.29,3.68-0.934,9.573c-1.738,4.605-5.615,7.501-9.359,9.648	c-5.958,3.417-13.792,3.316-17.57,6.073c-2.88,2.101-4.125,7.316-4.125,7.316s-0.347-4.43,1.361-8.514	c1.681-4.017,4.89-7.464,9.917-9.667c1.832-0.803,4.657-1.452,7.581-2.42c4.611-1.527,9.785-3.862,11.416-6.561	C66.292,37.208,66.835,33.695,66.835,33.695 M66.835,32.695c-0.03,0-0.061,0.001-0.092,0.004c-0.457,0.042-0.826,0.389-0.897,0.843	c-0.005,0.033-0.528,3.343-1.58,5.084c-1.214,2.009-5.178,4.243-10.875,6.129c-1.139,0.377-2.253,0.702-3.331,1.017	c-1.701,0.497-3.17,0.925-4.337,1.437c-4.944,2.166-8.553,5.692-10.438,10.197c-1.781,4.257-1.451,8.787-1.436,8.978	c0.038,0.49,0.428,0.88,0.918,0.918c0.027,0.002,0.053,0.003,0.079,0.003c0.458,0,0.863-0.314,0.972-0.767	c0.012-0.049,1.198-4.885,3.742-6.741c1.689-1.233,4.475-1.887,7.425-2.581c3.229-0.759,6.89-1.619,10.052-3.433	c3.266-1.873,7.835-4.964,9.797-10.163c2.326-6.163,1-10.093,0.942-10.257C67.637,32.961,67.256,32.695,66.835,32.695L66.835,32.695	z"/><path fill="#472b29" d="M66,29.4c3.088,0,5.6,2.512,5.6,5.6v31c0,3.088-2.512,5.6-5.6,5.6H35c-3.088,0-5.6-2.512-5.6-5.6V35	c0-3.088,2.512-5.6,5.6-5.6H66 M66,28H35c-3.866,0-7,3.134-7,7v31c0,3.866,3.134,7,7,7h31c3.866,0,7-3.134,7-7V35	C73,31.134,69.866,28,66,28L66,28z"/><path fill="#fdfcef" d="M78.5,80.5c0,0,1.567,0,3.5,0s3.5-1.567,3.5-3.5c0-1.781-1.335-3.234-3.055-3.455 C82.473,73.366,82.5,73.187,82.5,73c0-1.933-1.567-3.5-3.5-3.5c-1.032,0-1.95,0.455-2.59,1.165 c-0.384-1.808-1.987-3.165-3.91-3.165c-2.209,0-4,1.791-4,4c0,0.191,0.03,0.374,0.056,0.558C68.128,71.714,67.592,71.5,67,71.5 c-1.228,0-2.245,0.887-2.455,2.055C64.366,73.527,64.187,73.5,64,73.5c-1.933,0-3.5,1.567-3.5,3.5s1.567,3.5,3.5,3.5s7.5,0,7.5,0 V81h7V80.5z"/><path fill="#472b29" d="M80.25,76C80.112,76,80,75.888,80,75.75c0-1.223,0.995-2.218,2.218-2.218 c0.034,0.009,0.737-0.001,1.244,0.136c0.133,0.036,0.212,0.173,0.176,0.306c-0.036,0.134-0.173,0.213-0.306,0.176 c-0.444-0.12-1.1-0.12-1.113-0.118c-0.948,0-1.719,0.771-1.719,1.718C80.5,75.888,80.388,76,80.25,76z"/><circle cx="73.5" cy="80.5" r=".5" fill="#472b29"/><path fill="#472b29" d="M82,81h-3.5c-0.276,0-0.5-0.224-0.5-0.5s0.224-0.5,0.5-0.5H82c1.654,0,3-1.346,3-3 c0-1.496-1.125-2.768-2.618-2.959c-0.134-0.018-0.255-0.088-0.336-0.196s-0.115-0.244-0.094-0.377C81.975,73.314,82,73.16,82,73 c0-1.654-1.346-3-3-3c-0.85,0-1.638,0.355-2.219,1c-0.125,0.139-0.321,0.198-0.5,0.148c-0.182-0.049-0.321-0.195-0.36-0.379 C75.58,69.165,74.141,68,72.5,68c-1.93,0-3.5,1.57-3.5,3.5c0,0.143,0.021,0.28,0.041,0.418c0.029,0.203-0.063,0.438-0.242,0.54 c-0.179,0.102-0.396,0.118-0.556-0.01C67.878,72.155,67.449,72,67,72c-0.966,0-1.792,0.691-1.963,1.644 c-0.048,0.267-0.296,0.446-0.569,0.405C64.314,74.025,64.16,74,64,74c-1.654,0-3,1.346-3,3s1.346,3,3,3h7.5 c0.276,0,0.5,0.224,0.5,0.5S71.776,81,71.5,81H64c-2.206,0-4-1.794-4-4s1.794-4,4-4c0.059,0,0.116,0.002,0.174,0.006 C64.588,71.82,65.711,71,67,71c0.349,0,0.689,0.061,1.011,0.18C68.176,68.847,70.126,67,72.5,67c1.831,0,3.466,1.127,4.153,2.774 C77.333,69.276,78.155,69,79,69c2.206,0,4,1.794,4,4c0,0.048-0.001,0.095-0.004,0.142C84.739,73.59,86,75.169,86,77 C86,79.206,84.206,81,82,81z"/><path fill="#472b29" d="M76.5,80c-0.159,0-0.841,0-1,0c-0.276,0-0.5,0.224-0.5,0.5s0.224,0.5,0.5,0.5c0.159,0,0.841,0,1,0 c0.276,0,0.5-0.224,0.5-0.5S76.776,80,76.5,80z"/><path fill="#fff" d="M34.5,82h-10c-0.276,0-0.5-0.224-0.5-0.5s0.224-0.5,0.5-0.5h10c0.276,0,0.5,0.224,0.5,0.5 S34.776,82,34.5,82z"/><path fill="#fff" d="M38.5,82h-2c-0.276,0-0.5-0.224-0.5-0.5s0.224-0.5,0.5-0.5h2c0.276,0,0.5,0.224,0.5,0.5 S38.776,82,38.5,82z"/><path fill="#fff" d="M43.5,84h-10c-0.276,0-0.5-0.224-0.5-0.5s0.224-0.5,0.5-0.5h10c0.276,0,0.5,0.224,0.5,0.5 S43.777,84,43.5,84z"/><path fill="#fff" d="M31.5,84h-1c-0.276,0-0.5-0.224-0.5-0.5s0.224-0.5,0.5-0.5h1c0.276,0,0.5,0.224,0.5,0.5 S31.776,84,31.5,84z"/><path fill="#fff" d="M28.375,84H26.5c-0.276,0-0.5-0.224-0.5-0.5s0.224-0.5,0.5-0.5h1.875c0.276,0,0.5,0.224,0.5,0.5 S28.651,84,28.375,84z"/><path fill="#fff" d="M37.5,80h-5c-0.276,0-0.5-0.224-0.5-0.5s0.224-0.5,0.5-0.5h5c0.276,0,0.5,0.224,0.5,0.5 S37.777,80,37.5,80z"/><path fill="#fff" d="M34.5,86h-2c-0.276,0-0.5-0.224-0.5-0.5s0.224-0.5,0.5-0.5h2c0.276,0,0.5,0.224,0.5,0.5 S34.776,86,34.5,86z"/><path fill="#fff" d="M15.405,54H5.5C5.224,54,5,53.776,5,53.5S5.224,53,5.5,53h9.905c0.276,0,0.5,0.224,0.5,0.5	S15.682,54,15.405,54z"/><path fill="#fff" d="M18.5,54h-1c-0.276,0-0.5-0.224-0.5-0.5s0.224-0.5,0.5-0.5h1c0.276,0,0.5,0.224,0.5,0.5	S18.777,54,18.5,54z"/><path fill="#fff" d="M23.491,56H14.5c-0.276,0-0.5-0.224-0.5-0.5s0.224-0.5,0.5-0.5h8.991c0.276,0,0.5,0.224,0.5,0.5	S23.767,56,23.491,56z"/><path fill="#fff" d="M12.5,56h-1c-0.276,0-0.5-0.224-0.5-0.5s0.224-0.5,0.5-0.5h1c0.276,0,0.5,0.224,0.5,0.5	S12.777,56,12.5,56z"/><path fill="#fff" d="M9.5,56h-2C7.224,56,7,55.776,7,55.5S7.224,55,7.5,55h2c0.276,0,0.5,0.224,0.5,0.5S9.777,56,9.5,56z"/><path fill="#fff" d="M15.5,58h-2c-0.276,0-0.5-0.224-0.5-0.5s0.224-0.5,0.5-0.5h2c0.276,0,0.5,0.224,0.5,0.5	S15.776,58,15.5,58z"/><path fill="#fff" d="M18.5,49c-0.177,0-0.823,0-1,0c-0.276,0-0.5,0.224-0.5,0.5s0.224,0.5,0.5,0.5c0.177,0,0.823,0,1,0	c0.276,0,0.5-0.224,0.5-0.5S18.776,49,18.5,49z"/><path fill="#fff" d="M18.5,51c-0.177,0-4.823,0-5,0c-0.276,0-0.5,0.224-0.5,0.5s0.224,0.5,0.5,0.5c0.177,0,4.823,0,5,0	c0.276,0,0.5-0.224,0.5-0.5S18.776,51,18.5,51z"/><path fill="#fff" d="M23.5,53c-0.177,0-2.823,0-3,0c-0.276,0-0.5,0.224-0.5,0.5s0.224,0.5,0.5,0.5c0.177,0,2.823,0,3,0	c0.276,0,0.5-0.224,0.5-0.5S23.776,53,23.5,53z"/><g><path fill="#472b29" d="M31.5,62.069c-0.276,0-0.5-0.224-0.5-0.5v-5c0-0.276,0.224-0.5,0.5-0.5s0.5,0.224,0.5,0.5v5 C32,61.846,31.776,62.069,31.5,62.069z M31.5,55.069c-0.276,0-0.5-0.224-0.5-0.5v-10c0-0.276,0.224-0.5,0.5-0.5s0.5,0.224,0.5,0.5 v10C32,54.846,31.776,55.069,31.5,55.069z M31.5,40.069c-0.276,0-0.5-0.224-0.5-0.5v-3.139C31,33.436,33.436,31,36.431,31h14.113 c0.276,0,0.5,0.224,0.5,0.5s-0.224,0.5-0.5,0.5H36.431C33.988,32,32,33.988,32,36.431v3.139C32,39.846,31.776,40.069,31.5,40.069z M63.569,32h-4.025c-0.276,0-0.5-0.224-0.5-0.5s0.224-0.5,0.5-0.5h4.025c0.276,0,0.5,0.224,0.5,0.5S63.846,32,63.569,32z M57.544,32h-5c-0.276,0-0.5-0.224-0.5-0.5s0.224-0.5,0.5-0.5h5c0.276,0,0.5,0.224,0.5,0.5S57.82,32,57.544,32z"/></g><g><path fill="#472b29" d="M63.456,70h-7c-0.276,0-0.5-0.224-0.5-0.5s0.224-0.5,0.5-0.5h7c0.276,0,0.5,0.224,0.5,0.5 S63.732,70,63.456,70z M54.456,70H41.431c-0.276,0-0.5-0.224-0.5-0.5s0.224-0.5,0.5-0.5h13.025c0.276,0,0.5,0.224,0.5,0.5 S54.732,70,54.456,70z M69.5,63.931c-0.276,0-0.5-0.224-0.5-0.5v-15c0-0.276,0.224-0.5,0.5-0.5s0.5,0.224,0.5,0.5v15 C70,63.707,69.776,63.931,69.5,63.931z"/></g></svg>